# AST/ASF file generated using VICON BodyLanguage
# -----------------------------------------------
:version 1.10
:name VICON
:units
  mass 1.0
  length 0.45
  angle deg
:documentation
   .ast/.asf automatically generated from VICON data using
   VICON BodyBuilder and BodyLanguage model FoxedUp or BRILLIANT.MOD
:root
   order TX TY TZ RX RY RZ
   axis XYZ
   position 0 0 0  
   orientation 0 0 0 
:bonedata
  begin
     id 1 
     name lhipjoint
     direction 0.610259 -0.730986 0.305356 
     length 2.50941 
     axis 0 0 0  XYZ
  end
  begin
     id 2 
     name lfemur
     direction 0.34202 -0.939693 0  
     length 7.48822  
     axis 0 0 20  XYZ
    dof rx ry rz
    limits (-160.0 20.0)
           (-70.0 70.0)
           (-60.0 70.0)
  end
  begin
     id 3 
     name ltibia
     direction 0.34202 -0.939693 0   
     length 7.60141   
     axis 0 0 20   XYZ
    dof rx
    limits (-10.0 170.0)
  end
  begin
     id 4 
     name lfoot
     direction 0.0673488 -0.185039 0.980421   
     length 2.04049   
     axis -90 7.62852e-016 20   XYZ
    dof rx rz
    limits (-45.0 90.0)
           (-70.0 20.0)
  end
  begin
     id 5 
     name ltoes
     direction 1.5356e-011 -4.21729e-011 1   
     length 1.02897   
     axis -90 7.62852e-016 20   XYZ
    dof rx
    limits (-90.0 20.0)
  end
  begin
     id 6 
     name rhipjoint
     direction -0.57612 -0.754205 0.315056   
     length 2.43216  
     axis 0 0 0  XYZ 
  end
  begin
     id 7 
     name rfemur
     direction -0.34202 -0.939693 0   
     length 7.42799   
     axis 0 0 -20   XYZ
    dof rx ry rz
    limits (-160.0 20.0)
           (-70.0 70.0)
           (-70.0 60.0)
  end
  begin
     id 8 
     name rtibia
     direction -0.34202 -0.939693 0   
     length 7.69484   
     axis 0 0 -20   XYZ
    dof rx
    limits (-10.0 170.0)
 end
 begin
     id 9 
     name rfoot
     direction -0.111837 -0.30727 0.945028   
     length 2.15769  
     axis -90 -7.62852e-016 -20   XYZ
    dof rx rz
    limits (-45.0 90.0)
           (-20.0 70.0)
  end
  begin
     id 10 
     name rtoes
     direction -1.53539e-011 -4.21878e-011 1   
     length 1.07391   
     axis -90 -7.62852e-016 -20   XYZ
    dof rx
    limits (-90.0 20.0)
  end
  begin
     id 11 
     name lowerback
     direction 0.00552624 0.990109 -0.140195   
     length 2.12403   
     axis 0 0 0   XYZ
    dof rx ry rz
    limits (-20.0 45.0)
           (-30.0 30.0)
           (-30.0 30.0)
  end
  begin
     id 12 
     name upperback
     direction 0.00361898 0.999976 -0.00584723   
     length 2.13232   
     axis 0 0 0   XYZ
    dof rx ry rz
    limits (-20.0 45.0)
           (-30.0 30.0)
           (-30.0 30.0)
  end
  begin
     id 13 
     name thorax
     direction -0.000331275 0.998253 0.0590847   
     length 2.17688   
     axis 0 0 0   XYZ
    dof rx ry rz
    limits (-20.0 45.0)
           (-30.0 30.0)
           (-30.0 30.0)
  end
  begin
     id 14 
     name lowerneck
     direction -0.0561561 0.979832 0.19177   
     length 1.64159   
     axis 0 0 0   XYZ
    dof rx ry rz
    limits (-20.0 45.0)
           (-30.0 30.0)
           (-30.0 30.0)
  end
  begin
     id 15 
     name upperneck
     direction 0.0827153 0.979385 -0.184293   
     length 1.68939   
     axis 0 0 0   XYZ
    dof rx ry rz
    limits (-20.0 45.0)
           (-30.0 30.0)
           (-30.0 30.0)
  end
  begin
     id 16
     name head
     direction 0.0278583 0.995936 -0.0856488  
     length 1.70207  
     axis 0 0 0   XYZ
    dof rx ry rz
    limits (-20.0 45.0)
           (-30.0 30.0)
           (-30.0 30.0)
  end
  begin
     id 17 
     name lclavicle
     direction 0.950993 0.301131 -0.0702275  
     length 3.41652  
     axis 0 0 0   XYZ
    dof ry rz
    limits (-20.0 10.0)
           (0.0 20.0)
  end
  begin
     id 18 
     name lhumerus
     direction 1 -4.48981e-011 -3.9662e-029   
     length 5.32955   
     axis 180 -30 -90   XYZ
    dof rx ry rz
    limits (-60.0 90.0)
           (-90.0 90.0)
           (-90.0 90.0)
  end
  begin
     id 19
     name lradius
     direction 1 -4.48925e-011 -9.0549e-027   
     length 3.69232   
     axis 180 -30 -90   XYZ
    dof rx
    limits (-10.0 170.0)
  end
  begin
     id 20
     name lwrist
     direction 1 -4.49007e-011 -1.49005e-026   
     length 1.84616   
     axis 9.0955e-015 90 90   XYZ
    dof ry
    limits (-180.0 0.0)
 end
  begin
     id 21 
     name lhand
     direction 1 -4.49016e-011 -2.98023e-026   
     length 0.536598   
     axis 1.90115e-014 90 90   XYZ
    dof rx rz
    limits (-90.0 90.0)
           (-45.0 45.0)
  end
  begin
     id 22 
     name lfingers
     direction 1 -4.48924e-011 -5.9578e-026   
     length 0.432619   
     axis 3.80223e-014 90 90   XYZ
    dof rx
    limits (0.0 90.0)
  end
  begin
     id 23
     name lthumb
     direction 0.707107 -6.34947e-011 0.707107   
     length 0.621157   
     axis -90 45 -3.84942e-014   XYZ
    dof rx rz
    limits (-45.0 45.0)
           (-45.0 45.0)
  end
  begin
     id 24 
     name rclavicle
     direction -0.955495 0.276497 -0.102848   
     length 3.36357  
     axis 0 0 0   XYZ 
    dof ry rz
    limits (-10.0 20.0)
           (-20.0 0.0)
  end
  begin
     id 25 
     name rhumerus
     direction -1 -4.48961e-011 3.30983e-027  
     length 5.23431   
     axis 180 30 90   XYZ
    dof rx ry rz
    limits (-90.0 60.0)
           (-90.0 90.0)
           (-90.0 90.0)
  end
  begin
     id 26 
     name rradius
     direction -1 -4.48965e-011 -6.63263e-027   
     length 3.55301   
     axis 180 30 90   XYZ
    dof rx
    limits (-10.0 170.0)
  end
  begin
     id 27 
     name rwrist
     direction -1 -4.48942e-011 -1.48958e-026   
     length 1.77651   
     axis 9.0955e-015 -90 -90   XYZ
    dof ry
    limits (-180.0 0.0)
  end
  begin
     id 28
     name rhand
     direction -1 -4.48977e-011 -2.97966e-026   
     length 0.772522   
     axis 1.90115e-014 -90 -90   XYZ
    dof rx rz
    limits (-90.0 90.0)
           (-45.0 45.0)
  end
  begin
     id 29
     name rfingers
     direction -1 -4.49135e-011 -5.96389e-026   
     length 0.622827   
     axis 3.80223e-014 -90 -90   XYZ
    dof rx
    limits (0.0 90.0)
  end
  begin
     id 30
     name rthumb
     direction -0.707107 -6.34969e-011 0.707107   
     length 0.894259   
     axis -90 -45 3.84942e-014   XYZ
    dof rx rz
    limits (-45.0 45.0)
           (-45.0 45.0)
  end
:hierarchy
  begin
    root lhipjoint rhipjoint lowerback
    lhipjoint lfemur
    lfemur ltibia
    ltibia lfoot
    lfoot ltoes
    rhipjoint rfemur
    rfemur rtibia
    rtibia rfoot
    rfoot rtoes
    lowerback upperback
    upperback thorax
    thorax lowerneck lclavicle rclavicle
    lowerneck upperneck
    upperneck head
    lclavicle lhumerus
    lhumerus lradius
    lradius lwrist
    lwrist lhand lthumb
    lhand lfingers
    rclavicle rhumerus
    rhumerus rradius
    rradius rwrist
    rwrist rhand rthumb
    rhand rfingers
  end

#!OML:ASF F:\VICON\USERDATA\INSTALL\rory3\rory3.ASF
:FULLY-SPECIFIED
:DEGREES
1
root 15.8885 17.9044 -10.2607 1.78444 -43.0216 2.65733
lowerback 6.76721 0.0797696 -1.61196
upperback -1.91079 -0.019356 0.350819
thorax -5.78914 0.0543254 1.27351
lowerneck -22.3565 -5.23651 -11.3048
upperneck 23.0783 -6.12515 9.4709
head 11.9518 -2.58143 4.40914
rclavicle -5.52124e-014 1.03368e-014
rhumerus -33.7351 -12.0629 -80.7902
rradius 28.1556
rwrist 12.5354
rhand -10.1427 9.69546
rfingers 7.12502
rthumb 15.8462 -19.6761
lclavicle -5.52124e-014 1.03368e-014
lhumerus -34.0091 2.84607 85.2379
lradius 29.3336
lwrist -10.3499
lhand -15.0815 26.0169
lfingers 7.12502
lthumb 11.0862 55.704
rfemur -13.2319 1.89572 22.3289
rtibia 33.0457
rfoot -19.3018 -1.66042
rtoes 5.70888
lfemur -9.434 -3.77214 -24.2787
ltibia 24.1256
lfoot -13.008 -4.1923
ltoes 3.49815
2
root 15.8872 17.904 -10.2566 1.80809 -43.0968 2.632
lowerback 6.7516 0.127162 -1.59245
upperback -1.91937 0.044089 0.318407
thorax -5.79132 0.0843843 1.22135
lowerneck -22.2498 -5.24084 -11.0549
upperneck 22.9552 -6.1299 9.14902
head 11.8628 -2.60292 4.23814
rclavicle -9.35655e-014 2.78299e-015
rhumerus -33.7014 -12.2974 -80.7688
rradius 28.1904
rwrist 12.701
rhand -9.92727 9.96931
rfingers 7.12502
rthumb 16.0537 -19.3856
lclavicle -9.35655e-014 2.78299e-015
lhumerus -33.9482 2.70536 85.2739
lradius 29.3879
lwrist -10.1818
lhand -15.008 26.5487
lfingers 7.12502
lthumb 11.1571 56.2321
rfemur -13.2269 1.99398 22.3499
rtibia 33.0276
rfoot -19.3183 -1.69146
rtoes 5.96693
lfemur -9.44588 -3.55028 -24.2523
ltibia 24.1584
lfoot -12.9544 -4.3665
ltoes 3.99533
3
root 15.8858 17.9046 -10.251 1.88789 -43.1741 2.53777
lowerback 6.76363 0.137618 -1.51223
upperback -1.96396 0.0639278 0.303779
thorax -5.84547 0.0917367 1.15875
lowerneck -22.1873 -5.22301 -10.9363
upperneck 22.9294 -6.12136 9.04151
head 11.8313 -2.60347 4.17771
rclavicle 4.55838e-014 -4.37326e-015
rhumerus -33.6513 -12.5475 -80.7697
rradius 28.1132
rwrist 13.0631
rhand -10.0545 10.1452
rfingers 7.12502
rthumb 15.9312 -19.2195
lclavicle 4.55838e-014 -4.37326e-015
lhumerus -34.0434 2.78582 85.2274
lradius 29.5325
lwrist -10.225
lhand -14.7159 26.6469
lfingers 7.12502
lthumb 11.4387 56.3149
rfemur -13.2102 2.1075 22.4128
rtibia 32.9904
rfoot -19.2844 -1.66882
rtoes 6.04792
lfemur -9.45438 -3.48561 -24.1846
ltibia 24.1887
lfoot -12.908 -4.40496
ltoes 4.57974
4
root 15.8834 17.9045 -10.2457 1.89934 -43.2351 2.50757
lowerback 6.79109 0.140951 -1.50209
upperback -2.00508 0.0687641 0.307424
thorax -5.90455 0.0945464 1.15635
lowerneck -22.254 -5.30265 -11.1486
upperneck 23.0335 -6.21377 9.22646
head 11.9106 -2.64008 4.27115
rclavicle 1.04113e-014 -6.75868e-015
rhumerus -33.6322 -12.7454 -80.7569
rradius 28.0977
rwrist 13.358
rhand -10.2284 10.2022
rfingers 7.12502
rthumb 15.7637 -19.1759
lclavicle 1.04113e-014 -6.75868e-015
lhumerus -34.1639 3.0031 85.1976
lradius 29.639
lwrist -10.4701
lhand -14.4562 26.3061
lfingers 7.12502
lthumb 11.6892 55.96
rfemur -13.1451 2.16371 22.4336
rtibia 32.9311
rfoot -19.2675 -1.64454
rtoes 6.02258
lfemur -9.44583 -3.47681 -24.1701
ltibia 24.2528
lfoot -13.0287 -4.1759
ltoes 3.97705
5
root 15.8813 17.9037 -10.2409 1.95581 -43.2966 2.35169
lowerback 6.82879 0.157371 -1.40301
upperback -2.00087 0.100227 0.325533
thorax -5.92233 0.106923 1.11581
lowerneck -22.361 -5.47226 -11.5745
upperneck 23.1162 -6.42203 9.65339
head 12.0228 -2.7162 4.4737
rclavicle -8.20484e-014 -2.98177e-015
rhumerus -33.6536 -12.6709 -80.8716
rradius 28.3103
rwrist 13.1333
rhand -10.35 10.1254
rfingers 7.12502
rthumb 15.6466 -19.2618
lclavicle -8.20484e-014 -2.98177e-015
lhumerus -34.1931 2.8931 85.2429
lradius 29.7418
lwrist -10.3941
lhand -14.6761 26.2208
lfingers 7.12502
lthumb 11.4772 55.8866
rfemur -13.0484 2.1071 22.5682
rtibia 32.8643
rfoot -19.2693 -1.6024
rtoes 5.52669
lfemur -9.39372 -3.47884 -24.0473
ltibia 24.3117
lfoot -13.0932 -3.96222
ltoes 4.07675
6
root 15.8815 17.9046 -10.2364 2.13492 -43.3438 2.11485
lowerback 6.78638 0.173425 -1.17612
upperback -1.99294 0.141335 0.297556
thorax -5.88993 0.118098 0.954233
lowerneck -22.283 -5.54122 -11.6569
upperneck 22.9837 -6.54138 9.83034
head 11.9824 -2.75604 4.53156
rclavicle 5.08143e-015 4.37326e-015
rhumerus -33.6167 -12.6238 -81.0968
rradius 28.4822
rwrist 12.9172
rhand -10.648 9.8863
rfingers 7.12502
rthumb 15.3596 -19.5232
lclavicle 5.08143e-015 4.37326e-015
lhumerus -34.0619 2.60477 85.2392
lradius 29.7114
lwrist -10.0687
lhand -15.0064 26.0266
lfingers 7.12502
lthumb 11.1586 55.7099
rfemur -13.047 2.13227 22.7629
rtibia 32.8264
rfoot -19.1564 -1.70768
rtoes 5.11841
lfemur -9.41406 -3.42327 -23.86
ltibia 24.3289
lfoot -13.1336 -4.10506
ltoes 4.26347
7
root 15.8802 17.9072 -10.2356 2.27322 -43.3559 2.1025
lowerback 6.66159 0.16981 -1.18144
upperback -2.03178 0.135459 0.265453
thorax -5.85928 0.114721 0.92453
lowerneck -22.2239 -5.52477 -11.5482
upperneck 22.9279 -6.53196 9.73622
head 11.94 -2.75499 4.47681
rclavicle -2.39908e-014 1.39149e-015
rhumerus -33.5424 -12.6443 -81.2477
rradius 28.581
rwrist 12.8884
rhand -10.9289 9.6759
rfingers 7.12502
rthumb 15.0889 -19.7541
lclavicle -2.39908e-014 1.39149e-015
lhumerus -33.8666 2.55532 85.1858
lradius 29.5609
lwrist -9.92021
lhand -15.1933 25.8408
lfingers 7.12502
lthumb 10.9783 55.5337
rfemur -13.2031 2.1737 22.7833
rtibia 32.822
rfoot -19.1334 -1.77098
rtoes 4.95181
lfemur -9.54573 -3.43608 -23.8321
ltibia 24.3087
lfoot -13.2726 -4.16413
ltoes 3.8252
8
root 15.8744 17.9084 -10.2347 2.24598 -43.3898 2.33386
lowerback 6.49395 0.161364 -1.44122
upperback -2.06492 0.100526 0.218338
thorax -5.7983 0.105684 1.02555
lowerneck -22.2489 -5.50329 -11.5455
upperneck 22.9727 -6.50467 9.74144
head 11.9587 -2.74166 4.48448
rclavicle -1.99157e-014 -3.97569e-015
rhumerus -33.4615 -12.4822 -81.445
rradius 28.7063
rwrist 12.6628
rhand -10.699 9.76613
rfingers 7.12502
rthumb 15.3105 -19.6471
lclavicle -1.99157e-014 -3.97569e-015
lhumerus -33.756 2.65227 85.1025
lradius 29.48
lwrist -9.80241
lhand -15.1349 25.7978
lfingers 7.12502
lthumb 11.0347 55.4878
rfemur -13.3481 2.28181 22.6027
rtibia 32.8438
rfoot -19.4305 -1.51071
rtoes 4.54882
lfemur -9.64647 -3.37521 -24.0044
ltibia 24.2589
lfoot -13.5027 -3.89198
ltoes 2.20021
9
root 15.8704 17.9086 -10.2295 2.17373 -43.4501 2.50638
lowerback 6.39092 0.156674 -1.58752
upperback -2.0681 0.0796986 0.156708
thorax -5.74255 0.0990231 1.04597
lowerneck -22.171 -5.35522 -11.2987
upperneck 22.9958 -6.33615 9.54604
head 11.9133 -2.67093 4.39798
rclavicle 2.77429e-014 0
rhumerus -33.3843 -12.298 -81.6603
rradius 28.8573
rwrist 12.361
rhand -10.3444 9.94704
rfingers 7.12502
rthumb 15.652 -19.4398
lclavicle 2.77429e-014 0
lhumerus -33.7549 2.48546 85.1052
lradius 29.6229
lwrist -9.50236
lhand -15.0657 25.7699
lfingers 7.12502
lthumb 11.1014 55.4563
rfemur -13.3966 2.27935 22.4486
rtibia 32.8887
rfoot -19.7094 -1.10844
rtoes 3.94897
lfemur -9.62188 -3.38617 -24.153
ltibia 24.1875
lfoot -13.6462 -3.5323
ltoes 0.600822
